<?xml version="1.0" encoding="UTF-8" standalone="no"?>
<!-- Created with Inkscape (http://www.inkscape.org/) -->

<svg
   width="512"
   height="512"
   viewBox="0 0 135.46667 135.46667"
   version="1.1"
   id="svg1"
   xml:space="preserve"
   inkscape:version="1.3 (0e150ed6c4, 2023-07-21)"
   sodipodi:docname="favicon.svg"
   xmlns:inkscape="http://www.inkscape.org/namespaces/inkscape"
   xmlns:sodipodi="http://sodipodi.sourceforge.net/DTD/sodipodi-0.dtd"
   xmlns="http://www.w3.org/2000/svg"
   xmlns:svg="http://www.w3.org/2000/svg"><sodipodi:namedview
     id="namedview1"
     pagecolor="#505050"
     bordercolor="#ffffff"
     borderopacity="1"
     inkscape:showpageshadow="0"
     inkscape:pageopacity="0"
     inkscape:pagecheckerboard="1"
     inkscape:deskcolor="#d1d1d1"
     inkscape:document-units="mm"
     inkscape:zoom="1.0255231"
     inkscape:cx="420.76089"
     inkscape:cy="281.80741"
     inkscape:window-width="1920"
     inkscape:window-height="1011"
     inkscape:window-x="0"
     inkscape:window-y="0"
     inkscape:window-maximized="1"
     inkscape:current-layer="layer1" /><defs
     id="defs1" /><g
     inkscape:label="Слой 1"
     inkscape:groupmode="layer"
     id="layer1"><path
       style="fill:#000000;stroke-width:0.35634"
       d="m 50.094454,133.40238 c -0.125265,-0.0325 -0.132701,-0.11206 -0.09257,-0.99063 0.02404,-0.52544 0.04293,-1.30324 0.04211,-1.72843 -0.0037,-2.03327 -3.59e-4,-3.17636 0.01247,-3.88441 0.0087,-0.48229 -0.02747,-0.92915 -0.09622,-1.18795 l -0.110215,-0.41484 -4.36592,-0.0195 c -2.660408,-0.0119 -4.40015,-0.0478 -4.45353,-0.0922 -0.06466,-0.0537 -0.0831,-0.96822 -0.07047,-3.48779 0.0095,-1.87831 -0.0052,-3.68663 -0.03255,-4.0185 l -0.04972,-0.6034 -4.412371,-0.0377 -4.412378,-0.0377 -0.03771,-4.11069 -0.0377,-4.11066 -4.430579,-0.0195 -4.43058,-0.0195 -0.01948,-4.09122 -0.01948,-4.09121 -4.46861,-0.0195 -4.468609,-0.0195 -0.01919,-8.201895 -0.01919,-8.201896 -4.4312375,-0.01948 -4.43123,-0.01948 V 46.979406 9.9839433 H 18.552039 31.864593 v 3.8843947 3.884404 h -8.815515 c -8.108095,0 -8.823824,0.01004 -8.919033,0.124728 -0.08734,0.105235 -0.103518,4.645478 -0.103518,29.05756 v 28.932833 l 4.46861,0.01948 4.468609,0.01948 0.01919,8.201894 0.01919,8.201905 4.329965,0.01946 c 3.07121,0.01383 4.359708,0.04415 4.432252,0.104358 0.08302,0.06894 0.09854,0.547983 0.08241,2.544965 l -0.01986,2.4601 -3.544979,0.03841 -3.544994,0.03841 3.544994,0.03698 3.544979,0.03698 0.02046,1.444021 c 0.0265,1.869254 -0.579437,1.644034 4.493634,1.670284 2.891252,0.015 4.258131,0.0477 4.325419,0.10352 0.07854,0.0652 0.09838,0.86114 0.09838,3.94819 0,3.27326 0.01725,3.89969 0.112066,4.08258 l 0.112067,0.21604 4.356879,0.0377 4.356879,0.0377 0.03771,3.95982 c 0.04084,4.28581 0.03031,4.18413 0.438261,4.25157 0.362949,0.06 35.113106,0.0619 35.269414,10e-4 0.06562,-0.0252 0.119307,-0.0939 0.119307,-0.15272 0,-0.0588 0.08455,-0.13909 0.18788,-0.17837 l 0.187887,-0.0714 0.01957,-3.90538 0.01956,-3.90538 4.212189,-0.0195 c 4.169888,-0.0193 4.212583,-0.0211 4.252465,-0.17355 0.02463,-0.0941 0.124526,-0.17091 0.256757,-0.19736 l 0.21648,-0.0433 v -3.86328 c 0,-3.63199 0.0081,-3.87068 0.136487,-3.98681 0.122137,-0.11052 0.560309,-0.12596 4.167246,-0.14672 3.29526,-0.0189 4.08203,-0.0431 4.31169,-0.13231 l 0.28094,-0.10909 0.0208,-3.982467 c 0.018,-3.442529 0.0362,-3.992151 0.1339,-4.053949 0.0676,-0.04282 1.76976,-0.07201 4.23324,-0.07262 2.26605,-7.07e-4 4.22602,-0.02233 4.35547,-0.04825 l 0.23537,-0.04702 0.0192,-8.155419 0.0191,-8.15542 4.41238,-0.04098 c 2.4268,-0.02255 4.42089,-0.048 4.43132,-0.05659 0.0104,-0.0086 0.0104,-13.006606 0,-28.884552 l -0.019,-28.869002 -0.16971,-0.02411 c -0.0933,-0.01328 -0.16971,-0.06906 -0.16971,-0.123922 0,-0.186281 -0.23557,-0.191388 -8.83092,-0.191388 h -8.5923 V 13.86727 9.9826578 l 13.10513,0.019042 13.10513,0.01904 0.0189,36.976611 0.0188,36.976613 -4.46901,0.01948 -4.46903,0.01948 -0.0191,8.201901 -0.0192,8.201883 -4.43089,0.0195 -4.4309,0.0195 -0.0195,4.09122 -0.0195,4.09121 -4.46829,0.0195 -4.46829,0.0195 -0.0195,4.12892 -0.0195,4.12893 -4.430598,0.0195 -4.430588,0.0195 -0.01948,4.09121 -0.01948,4.09121 -4.43058,0.0195 -4.43058,0.0195 -0.01948,4.12952 -0.01948,4.12954 -17.63,-0.009 c -9.696494,-0.004 -17.691292,-0.0246 -17.766209,-0.044 z m 1.624107,-42.995734 c -0.154599,-0.189568 -0.468027,-0.56844 -0.696512,-0.841935 -0.228485,-0.273502 -0.516986,-0.626835 -0.64111,-0.785195 -0.543698,-0.693624 -0.743395,-0.942296 -1.885052,-2.347338 -0.663738,-0.816873 -1.308625,-1.613449 -1.433077,-1.770174 -0.124451,-0.156726 -0.633568,-0.787712 -1.131376,-1.402192 -0.497807,-0.614472 -0.971014,-1.205293 -1.051576,-1.312925 -0.08056,-0.107632 -0.267239,-0.334623 -0.414841,-0.504429 -0.147596,-0.169805 -0.505953,-0.610941 -0.796343,-0.980309 -0.290382,-0.369361 -0.787136,-0.986775 -1.103895,-1.372023 -0.677878,-0.82445 -0.645141,-0.663566 -0.786196,-3.863215 -0.03017,-0.684486 -0.06211,-1.380281 -0.07092,-1.546218 -0.0088,-0.165939 -0.04016,-0.793849 -0.06958,-1.395361 -0.02942,-0.601519 -0.06697,-1.34823 -0.08357,-1.659359 -0.01657,-0.31113 -0.06473,-1.346342 -0.107087,-2.300469 -0.04234,-0.954128 -0.09374,-1.904485 -0.114231,-2.111903 -0.02053,-0.207424 -0.05562,-0.852304 -0.07799,-1.433084 -0.0224,-0.580772 -0.07279,-1.683861 -0.111961,-2.451319 -0.03919,-0.76745 -0.09208,-1.819631 -0.117509,-2.338177 -0.02545,-0.518554 -0.07653,-1.553758 -0.113552,-2.300469 -0.03703,-0.74671 -0.100753,-2.087401 -0.1416,-2.979303 -0.04084,-0.8919 -0.109282,-2.249552 -0.15206,-3.017002 -0.124265,-2.229098 -0.155874,-2.874582 -0.230859,-4.71408 -0.03889,-0.954127 -0.09206,-1.855152 -0.118151,-2.002262 -0.03367,-0.189813 -0.01508,-0.294324 0.06391,-0.359895 0.112902,-0.09369 12.635601,-3.257023 12.89362,-3.257023 0.14455,0 0.247919,0.07354 1.906277,1.355607 0.539294,0.416932 1.642383,1.25794 2.45132,1.868912 0.808936,0.610962 1.667721,1.272431 1.908404,1.469911 0.540645,0.443607 0.508372,0.443316 2.223432,0.01964 1.722698,-0.425563 1.579417,-0.436007 2.501681,0.182347 1.099379,0.737096 0.996376,1.127174 0.977913,-3.703391 -0.0091,-2.376693 0.01306,-4.16741 0.05188,-4.20102 0.08209,-0.071 12.298971,-3.128675 12.512898,-3.131787 0.08296,-7.47e-4 0.659974,0.315713 1.282226,0.704268 0.622258,0.388547 1.479378,0.923175 1.904701,1.188048 0.425332,0.264872 0.934449,0.587364 1.131377,0.716662 0.649494,0.426398 1.409807,0.917418 1.678,1.08367 0.145199,0.09001 0.433693,0.270032 0.641118,0.400061 1.602934,1.00487 3.766417,2.355109 4.487796,2.800858 0.477068,0.294788 1.308632,0.814289 1.847926,1.15446 l 0.980519,0.618496 0.02613,0.527968 c 0.01441,0.29039 -0.01172,1.05407 -0.05808,1.697068 -0.04636,0.643007 -0.13412,2.170366 -0.195062,3.394136 -0.06092,1.223779 -0.144235,2.700223 -0.185087,3.280996 -0.04084,0.580779 -0.09412,1.446282 -0.118375,1.923343 -0.02427,0.477068 -0.05719,1.05407 -0.07316,1.282234 -0.01598,0.228156 -0.04988,0.873043 -0.07524,1.433076 -0.02538,0.560033 -0.06121,1.221889 -0.07963,1.470793 -0.01844,0.248904 -0.06876,1.063492 -0.111894,1.810203 -0.04315,0.74671 -0.112157,1.917691 -0.153374,2.602168 -0.04121,0.684486 -0.105542,1.855467 -0.14293,2.60217 -0.09208,1.838989 -0.20705,3.856422 -0.346053,6.07173 -0.06375,1.016362 -0.146685,2.509775 -0.184251,3.318711 -0.03755,0.808937 -0.08502,1.67444 -0.105437,1.923344 -0.02046,0.248903 -0.0788,1.243234 -0.129767,2.209619 -0.05263,0.998803 -0.127715,1.800087 -0.173889,1.856743 -0.0816,0.100118 -12.158662,3.141545 -12.462213,3.138417 -0.08916,-7.47e-4 -0.382247,-0.196831 -0.651308,-0.435365 C 76.225838,83.75655 75.689875,83.289859 75.303865,82.957991 74.917863,82.626113 74.411053,82.184882 74.177625,81.977457 73.94419,81.770039 73.555322,81.430623 73.313473,81.223206 73.071624,81.015788 72.372672,80.40484 71.760252,79.865554 69.05953,77.487316 68.883961,77.339019 68.76905,77.3389 c -0.187394,-1.87e-4 -0.247792,0.318072 -0.247792,1.305653 0,1.112541 -0.01299,1.147375 -0.459739,1.229743 -0.141235,0.02606 -0.332788,0.09467 -0.425667,0.152485 -0.09288,0.05785 -0.699603,0.239759 -1.34829,0.404293 -0.648679,0.164535 -1.229728,0.340902 -1.291207,0.39193 -0.09721,0.08069 -0.104631,0.522921 -0.05681,3.390134 l 0.05495,3.297362 -0.291951,0.07623 c -0.334317,0.0873 -12.365756,3.087045 -12.569165,3.13381 -0.08881,0.02046 -0.228201,-0.08506 -0.414834,-0.313906 z m 1.97078,-2.697535 c 0.25489,-0.06257 0.582235,-0.147267 0.727434,-0.188156 0.145192,-0.04091 2.110544,-0.532941 4.36745,-1.093422 2.256901,-0.560495 4.147425,-1.055562 4.201155,-1.100155 0.118942,-0.09871 0.108714,-3.794742 -0.01083,-3.906018 -0.043,-0.04009 -0.30232,-0.01004 -0.638153,0.0739 -0.311129,0.07778 -0.769338,0.189963 -1.018235,0.249292 -1.139804,0.271719 -2.358618,0.57878 -2.567999,0.646971 -1.362728,0.443823 -1.390037,0.377879 -1.434912,-3.465822 -0.01866,-1.595475 -0.05898,-2.924564 -0.08968,-2.95353 -0.03068,-0.02897 -1.040101,0.197622 -2.243132,0.503533 -1.203032,0.305904 -2.216287,0.55736 -2.251682,0.558779 -0.06085,0.0023 -0.02136,2.688554 0.06607,4.490387 0.0221,0.456328 0.05823,1.542447 0.08028,2.413609 0.02202,0.871163 0.04913,1.804546 0.06032,2.074197 0.01112,0.269642 0.02613,0.787249 0.0333,1.150233 0.01485,0.752937 -0.01889,0.727286 0.718647,0.546155 z m 25.355744,-6.340443 c 0.579682,-0.148162 1.393389,-0.35101 1.808223,-0.450766 2.831311,-0.680872 6.19734,-1.560455 6.277199,-1.640315 0.105594,-0.105601 0.156846,-0.5089 0.205103,-1.614102 0.01777,-0.406727 0.05517,-1.100081 0.08308,-1.540783 0.06652,-1.049524 0.973217,-1.147846 -6.37682,0.691487 -1.182292,0.295862 -2.36383,0.589097 -2.625642,0.651629 -0.583071,0.139263 -0.591209,0.156837 -0.604931,1.306079 -0.0059,0.47706 -0.02934,1.317113 -0.05263,1.866776 -0.05017,1.185457 -0.188462,1.106957 1.286399,0.729995 z M 59.324579,80.769261 c 0.22532,-0.06301 0.528461,-0.147116 0.673659,-0.186924 0.145192,-0.03979 1.112519,-0.276287 2.149619,-0.525519 1.037094,-0.249217 1.987451,-0.485049 2.111903,-0.524056 0.124451,-0.03897 0.670703,-0.178458 1.213893,-0.30989 0.543199,-0.131432 1.025417,-0.262319 1.071607,-0.290868 0.05196,-0.0321 0.102525,-0.486362 0.132634,-1.191519 0.121175,-2.838053 0.149625,-4.064952 0.09576,-4.129253 -0.0495,-0.05905 -7.445396,1.727618 -7.957925,1.922485 l -0.165594,0.06293 0.02628,2.096733 c 0.01448,1.153197 0.02927,2.342806 0.03292,2.643558 0.0075,0.617062 -0.0077,0.606439 0.615196,0.432297 z M 81.1269,75.447101 c 7.304803,-1.825119 6.5006,-1.509069 6.567096,-2.58087 0.05712,-0.920838 0.277065,-5.109062 0.325568,-6.200079 0.01657,-0.373356 0.06652,-1.357659 0.11091,-2.187335 0.04442,-0.829675 0.09416,-1.881856 0.110573,-2.338178 0.01642,-0.456328 0.05376,-1.102021 0.08289,-1.434883 0.07833,-0.894015 0.09644,-0.88781 -1.460923,-0.500554 -1.443342,0.358902 -1.649714,0.375251 -1.932219,0.153023 l -0.204387,-0.160765 0.01306,-1.706012 c 0.0075,-0.9383 0.0097,-1.748431 0.0059,-1.800288 -0.01127,-0.14378 -0.232374,-0.116836 -1.352701,0.164841 -1.703391,0.428273 -2.560593,0.64282 -3.67023,0.918614 -1.36022,0.338073 -1.183994,-0.0704 -1.281689,2.970657 -0.03464,1.078639 -0.07361,1.491203 -0.146214,1.54736 -0.179638,0.138994 -3.601038,0.958935 -3.678426,0.881532 -0.05868,-0.05868 -0.08938,-5.619143 -0.03539,-6.426429 0.01004,-0.149574 -0.02672,-0.193158 -0.177749,-0.210785 -0.239042,-0.02792 -7.094968,1.683653 -7.158971,1.787209 -0.0259,0.04188 -0.05689,1.274073 -0.06898,2.738259 -0.03792,4.604089 0.219773,4.01423 -1.992482,4.56081 -1.950742,0.481965 -1.939992,0.482339 -1.942672,-0.06727 -7.46e-4,-0.219093 -0.01374,-1.026261 -0.02822,-1.793718 -0.01441,-0.76745 -0.04897,-2.92272 -0.07677,-4.789496 -0.02777,-1.866777 -0.06413,-3.903254 -0.0808,-4.525513 -0.01665,-0.622259 -0.0321,-1.598074 -0.03442,-2.168477 l -0.0045,-1.037092 h -0.212351 c -0.116793,0 -2.246612,0.512028 -4.732931,1.137841 -2.486325,0.625812 -4.656355,1.169189 -4.822292,1.207518 -0.758276,0.17512 -1.254059,0.324373 -1.294418,0.389667 -0.06502,0.105198 -0.02418,2.888371 0.07669,5.222331 0.02508,0.580773 0.06405,2.057224 0.08658,3.280994 0.02255,1.223778 0.05674,2.411722 0.07603,2.639887 0.01926,0.228163 0.05338,1.144575 0.07575,2.036477 0.0224,0.891901 0.05539,2.181676 0.07346,2.86616 0.01799,0.684484 0.0536,2.177898 0.07908,3.318711 0.05756,2.577795 0.02636,2.47232 0.670658,2.262895 0.127402,-0.04143 2.16629,-0.553218 4.530874,-1.137342 2.364576,-0.584139 4.519853,-1.123037 4.789496,-1.197566 0.269643,-0.07451 0.812706,-0.210127 1.206809,-0.301335 0.394095,-0.09122 0.886243,-0.213225 1.09366,-0.271128 0.935516,-0.261177 9.519874,-2.372535 9.646251,-2.372535 0.118681,0 0.146102,5.008874 0.033,6.027072 -0.09743,0.877112 -0.739051,0.96325 6.735356,-0.904243 z m 5.895811,-16.626322 c 1.352672,-0.333385 1.271081,-0.278924 1.297755,-0.866243 0.0068,-0.145191 0.03494,-0.773109 0.06309,-1.395368 0.02807,-0.622251 0.06793,-1.267138 0.08861,-1.433076 0.02061,-0.165939 0.05324,-0.725972 0.07234,-1.244518 0.01911,-0.518547 0.09112,-2.011968 0.159943,-3.318704 0.06883,-1.306744 0.134763,-2.647426 0.14655,-2.979302 0.01179,-0.331869 0.04561,-1.08706 0.07509,-1.67821 0.05973,-1.195878 0.07122,-1.170779 -0.462436,-1.008186 -0.454826,0.138585 -0.846286,0.240878 -1.614035,0.421792 -0.435581,0.102637 -0.91076,0.221057 -1.055952,0.263148 -0.145198,0.04211 -1.706392,0.434865 -3.469321,0.87282 -3.713837,0.922615 -3.33174,0.728778 -3.367082,1.708124 -0.100507,2.784936 -0.09657,3.003215 0.05412,3.003215 0.07799,0 1.562329,-0.356386 3.298517,-0.791968 3.987906,-1.000496 3.95614,-1.00331 3.897579,0.345159 -0.01515,0.34945 -0.05099,1.721495 -0.07958,3.048978 -0.02859,1.327483 -0.06069,2.583311 -0.07129,2.790728 -0.04375,0.854395 -0.04345,2.303903 3.5e-4,2.375028 0.0648,0.104847 0.0939,0.101429 0.965602,-0.113417 z m -5.234305,-2.908118 c 3.301002,-0.818851 2.923922,-0.551238 2.94169,-2.087668 0.008,-0.694848 0.02934,-1.564129 0.04733,-1.931743 0.0324,-0.661506 0.03099,-0.667911 -0.135493,-0.622647 -0.09253,0.02516 -1.407089,0.354333 -2.921249,0.731518 -3.351501,0.83488 -2.890268,0.331391 -2.982699,3.255963 l -0.04234,1.3388 h 0.167214 c 0.09198,0 1.408448,-0.307896 2.925505,-0.684223 z M 32.222897,26.071233 32.01548,26.039654 v -3.879386 -3.879394 h 8.863146 8.863138 l -0.01957,3.903255 -0.01956,3.903253 -8.636191,0.0077 c -4.749899,0.0045 -8.729526,-0.0068 -8.843608,-0.02389 z m 53.771896,0.0037 c -0.02763,-0.02763 -0.05031,-1.792748 -0.05031,-3.922434 v -3.872137 l 8.692757,0.01919 8.69275,0.01919 0.0196,3.800401 c 0.0141,2.743642 -0.004,3.829001 -0.0658,3.903253 -0.0912,0.109872 -17.179723,0.161832 -17.288981,0.05256 z m -35.8378,-8.416171 c -0.203945,-0.615622 -0.278929,-2.502234 -0.106317,-2.674847 0.05839,-0.05838 0.06749,-0.344404 0.02979,-0.939047 -0.07197,-1.135759 -0.06652,-2.756954 0.01165,-3.457221 l 0.06316,-0.565691 4.268464,-0.01948 4.268464,-0.019483 0.20146,-0.2261115 0.201466,-0.2261114 0.02636,-3.8366678 c 0.01448,-2.11017 0.05002,-3.8749142 0.07889,-3.9216561 0.03844,-0.062258 2.363494,-0.084988 8.683613,-0.084988 h 8.631092 l 0.01948,4.1295284 0.01948,4.1295294 4.468946,0.019483 4.468945,0.019483 v 3.8837973 3.883807 h -17.65187 c -14.054561,0 -17.658235,-0.01919 -17.683102,-0.09428 z"
       id="path1" /></g></svg>
